<svg xmlns="http://www.w3.org/2000/svg" version="1.1" xmlns:xlink="http://www.w3.org/1999/xlink" xmlns:svgjs="http://svgjs.dev/svgjs" width="2000" height="464" viewBox="0 0 2000 464"><g transform="matrix(1,0,0,1,-2.462184873949809,-2.2053975903614003)"><svg viewBox="0 0 357 83" data-background-color="#ffffff" preserveAspectRatio="xMidYMid meet" height="464" width="2000" xmlns="http://www.w3.org/2000/svg" xmlns:xlink="http://www.w3.org/1999/xlink"><g id="tight-bounds" transform="matrix(1,0,0,1,0.43950000000003797,0.39449999999999363)"><svg viewBox="0 0 356.12052 82.21064822515112" height="82.21064822515112" width="356.12052"><g><svg viewBox="0 0 356.12052 82.21064822515112" height="82.21064822515112" width="356.12052"><g><svg viewBox="0 0 356.12052 82.21064822515112" height="82.21064822515112" width="356.12052"><g><path d="M0 82.211v-82.211h356.121v82.211z" fill="#1976d2" stroke="transparent" stroke-width="0" rx="0%" data-fill-palette-color="tertiary"></path><path d="M3.283 78.927v-75.644h349.554v75.644z" fill="#ffffff" stroke="transparent" stroke-width="0" rx="0%" data-fill-palette-color="quaternary"></path><path d="M9.85 72.361v-62.511h336.421v62.511z" fill="#1976d2" stroke="transparent" stroke-width="0" data-fill-palette-color="tertiary"></path></g><g transform="matrix(1,0,0,1,19.69974,19.69974)" id="textblocktransform"><svg viewBox="0 0 316.72104 42.81116822515112" height="42.81116822515112" width="316.72104" id="textblock"><g><svg viewBox="0 0 316.72104 42.81116822515112" height="42.81116822515112" width="316.72104"><g transform="matrix(1,0,0,1,0,0)"><svg width="316.72104" viewBox="3.78 -33.48 252.24999999999997 34.11" height="42.81116822515112" data-palette-color="#ffffff"><path d="M17.05 0L6.6 0 6.6-3.43 16.65-3.43Q19.9-3.43 21.26-4.81 22.63-6.2 22.63-8.65L22.63-8.65 22.63-9.55Q22.63-12.05 21.24-13.43 19.85-14.8 16.4-14.8L16.4-14.8 6.63-14.8 6.63-18.07 16.35-18.07Q19.43-18.07 20.74-19.41 22.05-20.75 22.05-23.13L22.05-23.13 22.05-23.58Q22.05-25.93 20.79-27.24 19.53-28.55 16.32-28.55L16.32-28.55 6.53-28.55 6.53-31.95 16.7-31.95Q21.8-31.95 24-29.93 26.2-27.9 26.2-24.23L26.2-24.23 26.2-23.73Q26.2-20.8 24.8-19.13 23.4-17.45 20.45-17.13L20.45-17.13 20.43-16.98Q23.8-16.48 25.33-14.63 26.85-12.78 26.85-9.47L26.85-9.47 26.85-8.45Q26.85-4.48 24.55-2.24 22.25 0 17.05 0L17.05 0ZM7.88 0L3.78 0 3.78-31.95 7.88-31.95 7.88 0ZM42.05 0.63L42.05 0.63Q36.8 0.63 34.09-2.21 31.37-5.05 31.37-10.38L31.37-10.38 31.37-14.1Q31.37-19.4 34.1-22.23 36.82-25.05 42.05-25.05L42.05-25.05Q47.3-25.05 50.01-22.23 52.72-19.4 52.72-14.1L52.72-14.1 52.72-10.38Q52.72-5.05 50.01-2.21 47.3 0.63 42.05 0.63ZM42.05-2.68L42.05-2.68Q45.3-2.68 46.98-4.6 48.67-6.53 48.67-10.15L48.67-10.15 48.67-14.33Q48.67-17.93 46.98-19.84 45.3-21.75 42.05-21.75L42.05-21.75Q38.82-21.75 37.12-19.84 35.42-17.93 35.42-14.33L35.42-14.33 35.42-10.15Q35.42-6.53 37.12-4.6 38.82-2.68 42.05-2.68ZM68.05 0.63L68.05 0.63Q62.8 0.63 60.08-2.21 57.37-5.05 57.37-10.38L57.37-10.38 57.37-14.1Q57.37-19.4 60.09-22.23 62.82-25.05 68.05-25.05L68.05-25.05Q73.3-25.05 76.01-22.23 78.72-19.4 78.72-14.1L78.72-14.1 78.72-10.38Q78.72-5.05 76.01-2.21 73.3 0.63 68.05 0.63ZM68.05-2.68L68.05-2.68Q71.3-2.68 72.98-4.6 74.67-6.53 74.67-10.15L74.67-10.15 74.67-14.33Q74.67-17.93 72.98-19.84 71.3-21.75 68.05-21.75L68.05-21.75Q64.82-21.75 63.12-19.84 61.42-17.93 61.42-14.33L61.42-14.33 61.42-10.15Q61.42-6.53 63.12-4.6 64.82-2.68 68.05-2.68ZM105.04 0L100.19 0 90.54-11.38 87.97-11.38 87.97-14.53 90.54-14.53 99.79-24.4 104.59-24.4 93.52-12.63 93.52-13.6 105.04 0ZM88.37 0L84.34 0 84.34-33.13 88.37-33.13 88.37 0ZM132.44 0L128.17 0 127.27-6.55Q127.02-8.4 126.42-9.76 125.82-11.13 124.58-11.9 123.34-12.68 121.07-12.68L121.07-12.68 112.39-12.7 112.39-15.98 121.67-16Q124.94-16 126.34-17.61 127.74-19.23 127.74-22L127.74-22 127.74-22.75Q127.74-25.5 126.32-27.01 124.89-28.53 121.57-28.53L121.57-28.53 112.27-28.53 112.27-31.95 122.12-31.95Q127.27-31.95 129.6-29.69 131.94-27.43 131.94-23.45L131.94-23.45 131.94-22.6Q131.94-19.48 130.47-17.49 128.99-15.5 125.57-15.08L125.57-15.08 125.57-14.58 123.79-15.2Q126.57-15 128.08-13.99 129.59-12.98 130.29-11.23 130.99-9.47 131.37-7.03L131.37-7.03 132.44 0ZM113.64 0L109.54 0 109.54-31.95 113.62-31.95 113.62-14.88 113.64-13.3 113.64 0ZM148.09 0.55L148.09 0.55Q142.51 0.55 139.69-2.18 136.86-4.9 136.86-9.98L136.86-9.98 136.86-14.33Q136.86-19.48 139.49-22.26 142.11-25.05 147.16-25.05L147.16-25.05Q150.56-25.05 152.84-23.79 155.11-22.53 156.26-20.2 157.41-17.88 157.41-14.65L157.41-14.65 157.41-13.75Q157.41-12.95 157.35-12.15 157.29-11.35 157.19-10.58L157.19-10.58 153.46-10.58Q153.51-11.78 153.53-12.85 153.54-13.93 153.54-14.83L153.54-14.83Q153.54-17.05 152.83-18.59 152.11-20.13 150.7-20.94 149.29-21.75 147.16-21.75L147.16-21.75Q144.01-21.75 142.44-19.93 140.86-18.1 140.86-14.7L140.86-14.7 140.86-12.38 140.89-11.88 140.89-9.55Q140.89-8.03 141.34-6.8 141.79-5.58 142.75-4.69 143.71-3.8 145.2-3.34 146.69-2.88 148.74-2.88L148.74-2.88Q151.11-2.88 153.16-3.5 155.21-4.13 157.01-5.2L157.01-5.2 156.64-1.7Q155.01-0.68 152.86-0.06 150.71 0.55 148.09 0.55ZM156.34-10.58L138.99-10.58 138.99-13.63 156.34-13.63 156.34-10.58ZM171.56-2.78L172.16-2.78 178.91-24.4 183.11-24.4 175.19 0 168.54 0 160.61-24.4 164.81-24.4 171.56-2.78ZM191.63 0L187.58 0 187.58-24.4 191.63-24.4 191.63 0ZM189.61-28.4L189.61-28.4Q188.36-28.4 187.75-29.06 187.13-29.73 187.13-30.88L187.13-30.88 187.13-31Q187.13-32.18 187.75-32.83 188.36-33.48 189.61-33.48L189.61-33.48Q190.86-33.48 191.48-32.83 192.11-32.18 192.11-31L192.11-31 192.11-30.88Q192.11-29.7 191.48-29.05 190.86-28.4 189.61-28.4ZM208.58 0.55L208.58 0.55Q203.01 0.55 200.18-2.18 197.36-4.9 197.36-9.98L197.36-9.98 197.36-14.33Q197.36-19.48 199.98-22.26 202.61-25.05 207.66-25.05L207.66-25.05Q211.06-25.05 213.33-23.79 215.61-22.53 216.76-20.2 217.91-17.88 217.91-14.65L217.91-14.65 217.91-13.75Q217.91-12.95 217.84-12.15 217.78-11.35 217.68-10.58L217.68-10.58 213.96-10.58Q214.01-11.78 214.02-12.85 214.03-13.93 214.03-14.83L214.03-14.83Q214.03-17.05 213.32-18.59 212.61-20.13 211.19-20.94 209.78-21.75 207.66-21.75L207.66-21.75Q204.51-21.75 202.93-19.93 201.36-18.1 201.36-14.7L201.36-14.7 201.36-12.38 201.38-11.88 201.38-9.55Q201.38-8.03 201.83-6.8 202.28-5.58 203.24-4.69 204.21-3.8 205.69-3.34 207.18-2.88 209.23-2.88L209.23-2.88Q211.61-2.88 213.66-3.5 215.71-4.13 217.51-5.2L217.51-5.2 217.13-1.7Q215.51-0.68 213.36-0.06 211.21 0.55 208.58 0.55ZM216.83-10.58L199.48-10.58 199.48-13.63 216.83-13.63 216.83-10.58ZM233.63 0L227.4 0 221.4-24.4 225.58-24.4 230.38-2.95 230.85-2.95 235.85-23.75 241.58-23.75 246.58-2.95 247.03-2.95 251.88-24.4 256.03-24.4 250.03 0 243.83 0 239.7-17.35 238.9-20.83 238.53-20.83 237.75-17.35 233.63 0Z" opacity="1" transform="matrix(1,0,0,1,0,0)" fill="#ffffff" class="wordmark-text-0" data-fill-palette-color="quaternary" id="text-0"></path></svg></g></svg></g></svg></g></svg></g><g></g></svg></g><defs></defs></svg><rect width="356.12052" height="82.21064822515112" fill="none" stroke="none" visibility="hidden"></rect></g></svg></g></svg>